<?xml version="1.0" encoding="UTF-8"?>
<svg width="512" height="512" viewBox="0 0 512 512" fill="none" xmlns="http://www.w3.org/2000/svg">
  <!-- Background Shield -->
  <path d="M256 32L64 96v160c0 100.6 68.1 185.8 160 212V32z" fill="#0D6EFD" opacity="0.9"/>
  <path d="M256 32v436c91.9-26.2 160-111.4 160-212V96L256 32z" fill="#084298" opacity="0.9"/>
  
  <!-- Lock Body -->
  <rect x="160" y="220" width="192" height="160" rx="16" fill="#212529"/>
  
  <!-- Lock Shackle -->
  <path d="M192 220v-48c0-35.3 28.7-64 64-64v0c35.3 0 64 28.7 64 64v48" stroke="#F8F9FA" stroke-width="24" stroke-linecap="round"/>
  
  <!-- Keyhole -->
  <circle cx="256" cy="284" r="24" fill="#F8F9FA"/>
  <rect x="244" y="284" width="24" height="48" rx="8" fill="#F8F9FA"/>
  
  <!-- Graph Line -->
  <path d="M180 320l30-15 30 30 30-45 30 15 32-25" stroke="#0D6EFD" stroke-width="8" stroke-linecap="round" stroke-linejoin="round"/>
</svg>